<svg id="Layer_1" height="512" viewBox="0 0 512 512" width="512" xmlns="http://www.w3.org/2000/svg" data-name="Layer 1"><path d="m395.227 338.666-.1-.082a162.178 162.178 0 0 0 22.473-82.584c0-89.6-72.494-162.5-161.6-162.5s-161.6 72.9-161.6 162.5 72.493 162.5 161.6 162.5c58.847 0 110.441-31.8 138.7-79.2.174-.214.357-.418.527-.634zm10.373-82.666c0 3.657-.138 7.282-.394 10.874-11.227 14.478-34.54 23.756-60.022 23.756-1.053 0-2.1-.027-3.144-.067a92.309 92.309 0 0 0 15.924-3.677c21.507-7.032 38.407-21.043 47.474-37.735.103 2.271.162 4.549.162 6.849zm-24.8-82.892a150.3 150.3 0 0 1 19.734 44.03c2.611 24.212-16.761 48.684-46.3 58.343a75.7 75.7 0 0 1 -38.439 2.56 64.1 64.1 0 0 0 3.246-31.064 88.62 88.62 0 0 0 32.994-21.067c15.924-15.925 26.058-34.91 28.765-52.802zm-23.989-28.208a151.346 151.346 0 0 1 12.308 12.712c2.586 18.284-7.305 41.546-25.569 59.81-.738.738-1.49 1.453-2.25 2.158a92.344 92.344 0 0 0 8.64-13.842c10.336-20.378 12.369-42.46 6.871-60.838zm-26.606-19.547c19.193 15.044 23.077 47.267 9.036 74.953a75.743 75.743 0 0 1 -25.374 28.993 64.338 64.338 0 0 0 -19.586-24.434 88.668 88.668 0 0 0 8.352-38.056c0-22.681-6.631-43.816-17.7-58.48a148.029 148.029 0 0 1 45.272 17.026zm-22.518 130.647a51.688 51.688 0 1 1 -51.687-52.021 51.914 51.914 0 0 1 51.687 52.021zm-51.687-150.5c3.209 0 6.393.114 9.553.316 15.279 10.839 25.077 34.547 25.077 61 0 1.043-.026 2.08-.066 3.115a92.334 92.334 0 0 0 -3.678-15.9c-5.548-16.968-15.89-31.863-29.119-41.941a71.139 71.139 0 0 0 -9.961-6.365q4.071-.218 8.194-.225zm-39.693 5.387c24.2-2.589 49.553 17.456 59.174 46.878a75.856 75.856 0 0 1 2.61 38.191 63.158 63.158 0 0 0 -31.226-3.308 88.712 88.712 0 0 0 -20.955-32.684c-16.1-16.095-35.285-26.262-53.317-28.844a148.592 148.592 0 0 1 43.714-20.233zm-58.9 32.024c18.323-2.693 41.662 7.182 60.019 25.539.738.737 1.452 1.489 2.157 2.249a92.318 92.318 0 0 0 -13.841-8.639c-20.4-10.347-42.576-12.263-61.007-6.547a151.3 151.3 0 0 1 12.67-12.602zm-31.407 38.689c15.3-18.816 47.08-22.646 74.313-8.834a75.844 75.844 0 0 1 28.872 25.19 64.129 64.129 0 0 0 -24.231 19.809 88.646 88.646 0 0 0 -38.138-8.391c-22.376 0-42.906 6.213-57.47 16.857a149.981 149.981 0 0 1 16.654-44.631zm-19.6 74.4c0-3.657.138-7.283.394-10.876 11.232-14.483 34.513-23.754 60.022-23.754 1.042 0 2.08.027 3.114.066a92.273 92.273 0 0 0 -15.894 3.678c-21.539 7.043-38.44 21.188-47.461 38.07-.113-2.384-.175-4.775-.175-7.184zm24.8 82.885a150.27 150.27 0 0 1 -19.6-43.526c-2.642-24.517 16.672-49.2 46.165-58.84a75.75 75.75 0 0 1 38.439-2.56 64.1 64.1 0 0 0 -3.246 31.064 88.616 88.616 0 0 0 -32.994 21.067c-15.935 15.936-26.064 34.91-28.764 52.795zm23.989 28.215a151.528 151.528 0 0 1 -12.309-12.713c-2.587-18.289 7.29-41.53 25.57-59.809.738-.738 1.49-1.453 2.25-2.158a92.344 92.344 0 0 0 -8.64 13.842c-10.336 20.378-12.369 42.46-6.871 60.838zm26.611 19.545c-19.193-15.044-23.077-47.267-9.036-74.953a75.743 75.743 0 0 1 25.372-28.992 64.338 64.338 0 0 0 19.586 24.434 88.668 88.668 0 0 0 -8.352 38.056c0 22.68 6.631 43.816 17.7 58.48a148.026 148.026 0 0 1 -45.27-17.025zm74.2 19.855c-3.21 0-6.393-.114-9.553-.316-15.278-10.838-25.077-34.547-25.077-61 0-1.043.026-2.08.066-3.115a92.334 92.334 0 0 0 3.678 15.895c5.554 16.988 15.828 31.893 28.927 41.971a70.518 70.518 0 0 0 9.849 6.355q-3.921.21-7.89.21zm39.355-5.3c-24 2.555-49.206-17.521-58.836-46.97a75.856 75.856 0 0 1 -2.61-38.191 63.158 63.158 0 0 0 31.226 3.308 88.712 88.712 0 0 0 20.955 32.684c16.1 16.095 35.282 26.263 53.314 28.846a148.567 148.567 0 0 1 -44.049 20.328zm59.24-32.116c-18.325 2.695-41.663-7.183-60.019-25.539-.738-.737-1.452-1.489-2.156-2.248a92.333 92.333 0 0 0 13.84 8.638 91.236 91.236 0 0 0 40.807 10.165 74.265 74.265 0 0 0 8.716-.506 67.586 67.586 0 0 0 10.6-2.126 151.432 151.432 0 0 1 -11.783 11.621zm-42.907-29.851a75.844 75.844 0 0 1 -28.872-25.19 64.139 64.139 0 0 0 24.232-19.809 88.635 88.635 0 0 0 38.137 8.391c22.355 0 42.9-6.218 57.471-16.864a150.027 150.027 0 0 1 -17.8 46.613c-15.147 17.895-45.608 20.842-73.168 6.864z"/><path d="m256 220a36 36 0 1 0 35.828 36 35.955 35.955 0 0 0 -35.828-36zm0 60a24 24 0 1 1 23.828-24 23.941 23.941 0 0 1 -23.828 24z"/><path d="m443.1 68h-141.517a191.652 191.652 0 0 0 -91.583.1v-.1h-141.1a38.01 38.01 0 0 0 -37.9 38v300a38.01 38.01 0 0 0 37.9 38h141.517a191.642 191.642 0 0 0 91.166 0h141.517a38.01 38.01 0 0 0 37.9-38v-300a38.01 38.01 0 0 0 -37.9-38zm-374.2 364a26 26 0 0 1 -25.9-26v-300a26 26 0 0 1 25.9-26h107.175a193.923 193.923 0 0 0 0 352zm187.1 5.5c-99.485 0-180.422-81.42-180.422-181.5s80.937-181.5 180.422-181.5 180.422 81.42 180.422 181.5-80.937 181.5-180.422 181.5zm213-31.5a26 26 0 0 1 -25.9 26h-107.175a193.923 193.923 0 0 0 0-352h107.175a26 26 0 0 1 25.9 26z"/><path d="m441.53 91.462a19.925 19.925 0 1 0 19.9 19.924 19.934 19.934 0 0 0 -19.9-19.924zm0 27.849a7.925 7.925 0 1 1 7.9-7.925 7.92 7.92 0 0 1 -7.9 7.925z"/><path d="m441.53 380.606a19.925 19.925 0 1 0 19.9 19.924 19.934 19.934 0 0 0 -19.9-19.924zm0 27.849a7.925 7.925 0 1 1 7.9-7.925 7.92 7.92 0 0 1 -7.9 7.925z"/><path d="m74.326 131.76a20.379 20.379 0 1 0 -19.9-20.374 20.163 20.163 0 0 0 19.9 20.374zm0-28.747a8.388 8.388 0 1 1 -7.9 8.373 8.155 8.155 0 0 1 7.9-8.373z"/><path d="m74.326 380.606a19.925 19.925 0 1 0 19.9 19.924 19.934 19.934 0 0 0 -19.9-19.924zm0 27.849a7.925 7.925 0 1 1 7.9-7.925 7.92 7.92 0 0 1 -7.9 7.925z"/><path d="m59.253 240.435a197.091 197.091 0 0 1 31.725-92.715 6 6 0 0 0 -10.026-6.593 209.128 209.128 0 0 0 -33.663 98.373 6 6 0 0 0 5.516 6.448c.158.012.316.019.472.019a6 6 0 0 0 5.976-5.532z"/><path d="m93.078 134.141a6 6 0 0 0 8.431-.955q1.551-1.948 3.15-3.857a6 6 0 1 0 -9.2-7.707q-1.694 2.022-3.339 4.088a6 6 0 0 0 .958 8.431z"/></svg>